<svg id="e281838b-b861-4fc8-aca2-44b589f44b94" data-name="LibDriver" xmlns="http://www.w3.org/2000/svg" viewBox="0 0 520.87 97.5"><defs><style>.aed56c52-789b-49f5-86cc-96423b50b78a{fill:#00a0df;}.b2f4535b-a697-4167-8a82-43a0def89e0a{fill:none;stroke:#00a0df;stroke-miterlimit:10;stroke-width:8px;}</style></defs><title>logo</title><path class="aed56c52-789b-49f5-86cc-96423b50b78a" d="M832.34,559H794V486.37h9.38v64.31h28.92Z" transform="translate(-675.5 -471.6)"/><path class="aed56c52-789b-49f5-86cc-96423b50b78a" d="M841,488.85a5.67,5.67,0,0,1,5.77-5.76,5.84,5.84,0,0,1,4.19,1.64,5.47,5.47,0,0,1,1.71,4.12,5.35,5.35,0,0,1-1.71,4.06,5.87,5.87,0,0,1-4.19,1.62,5.63,5.63,0,0,1-4.13-1.62A5.48,5.48,0,0,1,841,488.85ZM842.09,559V507.14h9.19V559Z" transform="translate(-675.5 -471.6)"/><path class="aed56c52-789b-49f5-86cc-96423b50b78a" d="M876.87,551.67V559h-9.19V482.24h9.19v33.85h.19q6.09-10.17,17.81-10.17,9.75,0,15.49,6.86t5.74,18.78q0,13.13-6.44,20.88t-17.18,7.76a17.08,17.08,0,0,1-15.42-8.53Zm0-14a14.92,14.92,0,0,0,4.08,10.62A14.35,14.35,0,0,0,902.56,547q4.13-5.62,4.12-15.56,0-8.2-3.84-13.06a12.68,12.68,0,0,0-10.5-4.85,14.37,14.37,0,0,0-11.13,4.83,17.54,17.54,0,0,0-4.39,12.28Z" transform="translate(-675.5 -471.6)"/><path class="aed56c52-789b-49f5-86cc-96423b50b78a" d="M930.17,559V486.37h20.72q16.49,0,27.44,9.61t10.95,25.78q0,16.88-10.95,27T950.14,559Zm9.37-64.27v56h10.55q13.83,0,21.58-7.55T979.43,522q0-13.59-8-20.43t-21-6.85Z" transform="translate(-675.5 -471.6)"/><path class="aed56c52-789b-49f5-86cc-96423b50b78a" d="M1029.92,516.23a10.77,10.77,0,0,0-6.33-1.64q-5.34,0-8.81,5t-3.47,13.15V559h-9.19V507.14h9.19v10.54h.18q3.94-11.43,13.6-11.44a13,13,0,0,1,4.83.71Z" transform="translate(-675.5 -471.6)"/><path class="aed56c52-789b-49f5-86cc-96423b50b78a" d="M1037.65,488.85a5.67,5.67,0,0,1,5.77-5.76,5.84,5.84,0,0,1,4.19,1.64,5.47,5.47,0,0,1,1.71,4.12,5.35,5.35,0,0,1-1.71,4.06,5.87,5.87,0,0,1-4.19,1.62,5.63,5.63,0,0,1-4.13-1.62A5.48,5.48,0,0,1,1037.65,488.85Zm1.08,70.13V507.14h9.19V559Z" transform="translate(-675.5 -471.6)"/><path class="aed56c52-789b-49f5-86cc-96423b50b78a" d="M1106.09,507.14,1085.56,559h-9.28l-19.5-51.84h10l12.65,37a33.26,33.26,0,0,1,1.83,7.45h.24a33.23,33.23,0,0,1,1.64-7.27l13.26-37.21Z" transform="translate(-675.5 -471.6)"/><path class="aed56c52-789b-49f5-86cc-96423b50b78a" d="M1156.34,535.4h-36.28q.23,8.29,4.54,12.82t12.05,4.52a25.63,25.63,0,0,0,16-5.57v8.2q-6.84,4.83-18.14,4.83t-17.55-7.13q-6.3-7.12-6.31-19.78,0-11.91,6.92-19.64a22.09,22.09,0,0,1,17.18-7.73q10.17,0,15.89,6.54t5.72,18.3Zm-9.19-7.36q0-7-3.33-10.87t-9.23-3.85a12.85,12.85,0,0,0-9.49,4.08,18.82,18.82,0,0,0-5,10.64Z" transform="translate(-675.5 -471.6)"/><path class="aed56c52-789b-49f5-86cc-96423b50b78a" d="M1196.37,516.23a10.74,10.74,0,0,0-6.33-1.64q-5.34,0-8.81,5t-3.47,13.15V559h-9.19V507.14h9.19v10.54h.19q3.93-11.43,13.59-11.44a13,13,0,0,1,4.83.71Z" transform="translate(-675.5 -471.6)"/><circle class="b2f4535b-a697-4167-8a82-43a0def89e0a" cx="48.75" cy="48.75" r="44.75"/><path class="aed56c52-789b-49f5-86cc-96423b50b78a" d="M722.5,539.32H701.2V503h7.73v30H722.5Z" transform="translate(-675.5 -471.6)"/><path class="aed56c52-789b-49f5-86cc-96423b50b78a" d="M722.2,539.3V503h12.53q19.35,0,19.34,17.7,0,8.41-5.41,13.51t-14,5.1Zm7.73-30V533h4.22q5.51,0,8.65-3.28t3.14-8.89c0-3.6-1.1-6.42-3.28-8.44a12,12,0,0,0-8.53-3Z" transform="translate(-675.5 -471.6)"/></svg>