<svg xmlns="http://www.w3.org/2000/svg" viewBox="0 0 140 125.47">
    <g id="Group_32" data-name="Group 32" transform="translate(-70.866 -78.998)">
        <path id="Path_46" data-name="Path 46" d="M81.672,204.468c-9.627,0-13.564-6.906-8.753-15.346l59.2-103.8c4.811-8.439,12.686-8.439,17.5,0l59.194,103.8c4.815,8.44.874,15.346-8.753,15.346Z" fill="#862633"/>
        <path id="Path_47" data-name="Path 47" d="M112.274,167.229h5.616v23.254h-5.714V179.346l-3.3,5.748H105.22l-3.3-5.748v11.137H96.207V167.229h5.616l5.225,10.256Zm9.779,23.254h5.717V167.229h-5.717Zm19.4-14.144-2.808-.39a2.622,2.622,0,0,1-1.6-.685,1.536,1.536,0,0,1-.457-1.079c0-1.014.814-2.155,2.808-2.155A5.727,5.727,0,0,1,143.8,173.4l3.6-3.593c-1.992-1.993-4.508-2.775-7.841-2.775-5.289,0-8.489,3.1-8.489,7.347a6.443,6.443,0,0,0,1.6,4.67,7.865,7.865,0,0,0,4.67,2.058l2.808.39a2.609,2.609,0,0,1,1.536.623,1.938,1.938,0,0,1,.459,1.371c0,1.339-1.078,2.09-3.33,2.09-1.864,0-3.987-.423-5.2-1.632l-3.656,3.658c2.35,2.416,5.256,3.069,8.816,3.069,4.9,0,8.98-2.579,8.98-7.315a6.76,6.76,0,0,0-1.73-5.094A7.834,7.834,0,0,0,141.454,176.339Zm48.668,14.144h-5.977l-1.076-3.462h-7.152l-1.145,3.462h-12.3l-4.115-8.655h-1.926v8.655h-5.717V167.229h9.209c5.161,0,7.936,3.658,7.936,7.477a6.691,6.691,0,0,1-3.787,6.077l4.851,9.358,8.334-22.912h4.411Zm-27.981-15.777a2.35,2.35,0,0,0-2.48-2.349h-3.233v4.7h3.233A2.353,2.353,0,0,0,162.141,174.706Zm19.426,7.546-1.959-6.206-2.092,6.206Z" transform="translate(-0.918 0)" fill="#fff"/>
    </g>
</svg>
