<?xml version="1.0" encoding="UTF-8" standalone="no"?>
<!DOCTYPE svg PUBLIC "-//W3C//DTD SVG 1.1//EN"
 "http://www.w3.org/Graphics/SVG/1.1/DTD/svg11.dtd">
<!-- Generated by graphviz version 13.1.0 (20250701.0955)
 -->
<!-- Title: interface/driver_w25qxx_interface.h Pages: 1 -->
<svg width="635pt" height="176pt"
 viewBox="0.00 0.00 635.00 176.00" xmlns="http://www.w3.org/2000/svg" xmlns:xlink="http://www.w3.org/1999/xlink">
<g id="graph0" class="graph" transform="scale(1 1) rotate(0) translate(4 172)">
<title>interface/driver_w25qxx_interface.h</title>
<!-- Node1 -->
<g id="Node000001" class="node">
<title>Node1</title>
<g id="a_Node000001"><a xlink:title="driver w25qxx interface header file">
<polygon fill="#999999" stroke="#666666" points="393.12,-168 273.62,-168 273.62,-136 393.12,-136 393.12,-168"/>
<text xml:space="preserve" text-anchor="start" x="281.62" y="-154.5" font-family="Helvetica,sans-Serif" font-size="10.00">interface/driver_w25qxx</text>
<text xml:space="preserve" text-anchor="middle" x="333.38" y="-142.5" font-family="Helvetica,sans-Serif" font-size="10.00">_interface.h</text>
</a>
</g>
</g>
<!-- Node2 -->
<g id="Node000002" class="node">
<title>Node2</title>
<g id="a_Node000002"><a xlink:href="driver__w25qxx__advance_8h.html" target="_top" xlink:title="driver w25qxx advance header file">
<polygon fill="white" stroke="#666666" points="118.75,-100 0,-100 0,-68 118.75,-68 118.75,-100"/>
<text xml:space="preserve" text-anchor="start" x="8" y="-86.5" font-family="Helvetica,sans-Serif" font-size="10.00">example/driver_w25qxx</text>
<text xml:space="preserve" text-anchor="middle" x="59.38" y="-74.5" font-family="Helvetica,sans-Serif" font-size="10.00">_advance.h</text>
</a>
</g>
</g>
<!-- Node1&#45;&gt;Node2 -->
<g id="edge1_Node000001_Node000002" class="edge">
<title>Node1&#45;&gt;Node2</title>
<g id="a_edge1_Node000001_Node000002"><a xlink:title=" ">
<path fill="none" stroke="#63b8ff" d="M262.21,-133.86C217.69,-123.13 161.01,-109.48 118.89,-99.34"/>
<polygon fill="#63b8ff" stroke="#63b8ff" points="261.23,-137.22 271.77,-136.16 262.87,-130.42 261.23,-137.22"/>
</a>
</g>
</g>
<!-- Node4 -->
<g id="Node000004" class="node">
<title>Node4</title>
<g id="a_Node000004"><a xlink:href="driver__w25qxx__basic_8h.html" target="_top" xlink:title="driver w25qxx basic header file">
<polygon fill="white" stroke="#666666" points="255.75,-100 137,-100 137,-68 255.75,-68 255.75,-100"/>
<text xml:space="preserve" text-anchor="start" x="145" y="-86.5" font-family="Helvetica,sans-Serif" font-size="10.00">example/driver_w25qxx</text>
<text xml:space="preserve" text-anchor="middle" x="196.38" y="-74.5" font-family="Helvetica,sans-Serif" font-size="10.00">_basic.h</text>
</a>
</g>
</g>
<!-- Node1&#45;&gt;Node4 -->
<g id="edge3_Node000001_Node000004" class="edge">
<title>Node1&#45;&gt;Node4</title>
<g id="a_edge3_Node000001_Node000004"><a xlink:title=" ">
<path fill="none" stroke="#63b8ff" d="M291.04,-130.61C270.81,-120.86 246.98,-109.38 228.29,-100.38"/>
<polygon fill="#63b8ff" stroke="#63b8ff" points="289.36,-133.68 299.89,-134.87 292.4,-127.38 289.36,-133.68"/>
</a>
</g>
</g>
<!-- Node6 -->
<g id="Node000006" class="node">
<title>Node6</title>
<g id="a_Node000006"><a xlink:href="driver__w25qxx__interface__template_8c.html" target="_top" xlink:title="driver w25qxx interface template source file">
<polygon fill="white" stroke="#666666" points="393.12,-100 273.62,-100 273.62,-68 393.12,-68 393.12,-100"/>
<text xml:space="preserve" text-anchor="start" x="281.62" y="-86.5" font-family="Helvetica,sans-Serif" font-size="10.00">interface/driver_w25qxx</text>
<text xml:space="preserve" text-anchor="middle" x="333.38" y="-74.5" font-family="Helvetica,sans-Serif" font-size="10.00">_interface_template.c</text>
</a>
</g>
</g>
<!-- Node1&#45;&gt;Node6 -->
<g id="edge5_Node000001_Node000006" class="edge">
<title>Node1&#45;&gt;Node6</title>
<g id="a_edge5_Node000001_Node000006"><a xlink:title=" ">
<path fill="none" stroke="#63b8ff" d="M333.38,-124.31C333.38,-116.12 333.38,-107.38 333.38,-100.22"/>
<polygon fill="#63b8ff" stroke="#63b8ff" points="329.88,-124.18 333.38,-134.18 336.88,-124.18 329.88,-124.18"/>
</a>
</g>
</g>
<!-- Node7 -->
<g id="Node000007" class="node">
<title>Node7</title>
<g id="a_Node000007"><a xlink:href="driver__w25qxx__read__test_8h.html" target="_top" xlink:title="driver w25qxx read test header file">
<polygon fill="white" stroke="#666666" points="509.62,-100 411.12,-100 411.12,-68 509.62,-68 509.62,-100"/>
<text xml:space="preserve" text-anchor="start" x="419.12" y="-86.5" font-family="Helvetica,sans-Serif" font-size="10.00">test/driver_w25qxx</text>
<text xml:space="preserve" text-anchor="middle" x="460.38" y="-74.5" font-family="Helvetica,sans-Serif" font-size="10.00">_read_test.h</text>
</a>
</g>
</g>
<!-- Node1&#45;&gt;Node7 -->
<g id="edge6_Node000001_Node000007" class="edge">
<title>Node1&#45;&gt;Node7</title>
<g id="a_edge6_Node000001_Node000007"><a xlink:title=" ">
<path fill="none" stroke="#63b8ff" d="M373.13,-130.34C391.78,-120.65 413.62,-109.3 430.79,-100.38"/>
<polygon fill="#63b8ff" stroke="#63b8ff" points="371.75,-127.11 364.49,-134.83 374.98,-133.32 371.75,-127.11"/>
</a>
</g>
</g>
<!-- Node9 -->
<g id="Node000009" class="node">
<title>Node9</title>
<g id="a_Node000009"><a xlink:href="driver__w25qxx__register__test_8h.html" target="_top" xlink:title="driver w25qxx register test header file">
<polygon fill="white" stroke="#666666" points="626.62,-100 528.12,-100 528.12,-68 626.62,-68 626.62,-100"/>
<text xml:space="preserve" text-anchor="start" x="536.12" y="-86.5" font-family="Helvetica,sans-Serif" font-size="10.00">test/driver_w25qxx</text>
<text xml:space="preserve" text-anchor="middle" x="577.38" y="-74.5" font-family="Helvetica,sans-Serif" font-size="10.00">_register_test.h</text>
</a>
</g>
</g>
<!-- Node1&#45;&gt;Node9 -->
<g id="edge8_Node000001_Node000009" class="edge">
<title>Node1&#45;&gt;Node9</title>
<g id="a_edge8_Node000001_Node000009"><a xlink:title=" ">
<path fill="none" stroke="#63b8ff" d="M401.63,-132.54C441.77,-121.68 491.61,-108.2 527.95,-98.37"/>
<polygon fill="#63b8ff" stroke="#63b8ff" points="400.78,-129.14 392.04,-135.13 402.61,-135.9 400.78,-129.14"/>
</a>
</g>
</g>
<!-- Node3 -->
<g id="Node000003" class="node">
<title>Node3</title>
<g id="a_Node000003"><a xlink:href="driver__w25qxx__advance_8c.html" target="_top" xlink:title="driver w25qxx advance source file">
<polygon fill="white" stroke="#666666" points="118.75,-32 0,-32 0,0 118.75,0 118.75,-32"/>
<text xml:space="preserve" text-anchor="start" x="8" y="-18.5" font-family="Helvetica,sans-Serif" font-size="10.00">example/driver_w25qxx</text>
<text xml:space="preserve" text-anchor="middle" x="59.38" y="-6.5" font-family="Helvetica,sans-Serif" font-size="10.00">_advance.c</text>
</a>
</g>
</g>
<!-- Node2&#45;&gt;Node3 -->
<g id="edge2_Node000002_Node000003" class="edge">
<title>Node2&#45;&gt;Node3</title>
<g id="a_edge2_Node000002_Node000003"><a xlink:title=" ">
<path fill="none" stroke="#63b8ff" d="M59.38,-56.31C59.38,-48.12 59.38,-39.38 59.38,-32.22"/>
<polygon fill="#63b8ff" stroke="#63b8ff" points="55.88,-56.18 59.38,-66.18 62.88,-56.18 55.88,-56.18"/>
</a>
</g>
</g>
<!-- Node5 -->
<g id="Node000005" class="node">
<title>Node5</title>
<g id="a_Node000005"><a xlink:href="driver__w25qxx__basic_8c.html" target="_top" xlink:title="driver w25qxx basic source file">
<polygon fill="white" stroke="#666666" points="255.75,-32 137,-32 137,0 255.75,0 255.75,-32"/>
<text xml:space="preserve" text-anchor="start" x="145" y="-18.5" font-family="Helvetica,sans-Serif" font-size="10.00">example/driver_w25qxx</text>
<text xml:space="preserve" text-anchor="middle" x="196.38" y="-6.5" font-family="Helvetica,sans-Serif" font-size="10.00">_basic.c</text>
</a>
</g>
</g>
<!-- Node4&#45;&gt;Node5 -->
<g id="edge4_Node000004_Node000005" class="edge">
<title>Node4&#45;&gt;Node5</title>
<g id="a_edge4_Node000004_Node000005"><a xlink:title=" ">
<path fill="none" stroke="#63b8ff" d="M196.38,-56.31C196.38,-48.12 196.38,-39.38 196.38,-32.22"/>
<polygon fill="#63b8ff" stroke="#63b8ff" points="192.88,-56.18 196.38,-66.18 199.88,-56.18 192.88,-56.18"/>
</a>
</g>
</g>
<!-- Node8 -->
<g id="Node000008" class="node">
<title>Node8</title>
<g id="a_Node000008"><a xlink:href="driver__w25qxx__read__test_8c.html" target="_top" xlink:title="driver w25qxx read test source file">
<polygon fill="white" stroke="#666666" points="509.62,-32 411.12,-32 411.12,0 509.62,0 509.62,-32"/>
<text xml:space="preserve" text-anchor="start" x="419.12" y="-18.5" font-family="Helvetica,sans-Serif" font-size="10.00">test/driver_w25qxx</text>
<text xml:space="preserve" text-anchor="middle" x="460.38" y="-6.5" font-family="Helvetica,sans-Serif" font-size="10.00">_read_test.c</text>
</a>
</g>
</g>
<!-- Node7&#45;&gt;Node8 -->
<g id="edge7_Node000007_Node000008" class="edge">
<title>Node7&#45;&gt;Node8</title>
<g id="a_edge7_Node000007_Node000008"><a xlink:title=" ">
<path fill="none" stroke="#63b8ff" d="M460.38,-56.31C460.38,-48.12 460.38,-39.38 460.38,-32.22"/>
<polygon fill="#63b8ff" stroke="#63b8ff" points="456.88,-56.18 460.38,-66.18 463.88,-56.18 456.88,-56.18"/>
</a>
</g>
</g>
<!-- Node10 -->
<g id="Node000010" class="node">
<title>Node10</title>
<g id="a_Node000010"><a xlink:href="driver__w25qxx__register__test_8c.html" target="_top" xlink:title="driver w25qxx register test source file">
<polygon fill="white" stroke="#666666" points="626.62,-32 528.12,-32 528.12,0 626.62,0 626.62,-32"/>
<text xml:space="preserve" text-anchor="start" x="536.12" y="-18.5" font-family="Helvetica,sans-Serif" font-size="10.00">test/driver_w25qxx</text>
<text xml:space="preserve" text-anchor="middle" x="577.38" y="-6.5" font-family="Helvetica,sans-Serif" font-size="10.00">_register_test.c</text>
</a>
</g>
</g>
<!-- Node9&#45;&gt;Node10 -->
<g id="edge9_Node000009_Node000010" class="edge">
<title>Node9&#45;&gt;Node10</title>
<g id="a_edge9_Node000009_Node000010"><a xlink:title=" ">
<path fill="none" stroke="#63b8ff" d="M577.38,-56.31C577.38,-48.12 577.38,-39.38 577.38,-32.22"/>
<polygon fill="#63b8ff" stroke="#63b8ff" points="573.88,-56.18 577.38,-66.18 580.88,-56.18 573.88,-56.18"/>
</a>
</g>
</g>
</g>
</svg>
