<?xml version="1.0" encoding="UTF-8" standalone="no"?>
<!DOCTYPE svg PUBLIC "-//W3C//DTD SVG 1.1//EN"
 "http://www.w3.org/Graphics/SVG/1.1/DTD/svg11.dtd">
<!-- Generated by graphviz version 13.1.0 (20250701.0955)
 -->
<!-- Title: example/driver_w25qxx_basic.h Pages: 1 -->
<svg width="186pt" height="208pt"
 viewBox="0.00 0.00 186.00 208.00" xmlns="http://www.w3.org/2000/svg" xmlns:xlink="http://www.w3.org/1999/xlink">
<g id="graph0" class="graph" transform="scale(1 1) rotate(0) translate(4 204)">
<title>example/driver_w25qxx_basic.h</title>
<!-- Node1 -->
<g id="Node000001" class="node">
<title>Node1</title>
<g id="a_Node000001"><a xlink:title="driver w25qxx basic header file">
<polygon fill="#999999" stroke="#666666" points="148.5,-200 29.75,-200 29.75,-168 148.5,-168 148.5,-200"/>
<text xml:space="preserve" text-anchor="start" x="37.75" y="-186.5" font-family="Helvetica,sans-Serif" font-size="10.00">example/driver_w25qxx</text>
<text xml:space="preserve" text-anchor="middle" x="89.12" y="-174.5" font-family="Helvetica,sans-Serif" font-size="10.00">_basic.h</text>
</a>
</g>
</g>
<!-- Node2 -->
<g id="Node000002" class="node">
<title>Node2</title>
<g id="a_Node000002"><a xlink:href="driver__w25qxx__interface_8h.html" target="_top" xlink:title="driver w25qxx interface header file">
<polygon fill="white" stroke="#666666" points="154.12,-132 24.12,-132 24.12,-112 154.12,-112 154.12,-132"/>
<text xml:space="preserve" text-anchor="middle" x="89.12" y="-118.5" font-family="Helvetica,sans-Serif" font-size="10.00">driver_w25qxx_interface.h</text>
</a>
</g>
</g>
<!-- Node1&#45;&gt;Node2 -->
<g id="edge1_Node000001_Node000002" class="edge">
<title>Node1&#45;&gt;Node2</title>
<g id="a_edge1_Node000001_Node000002"><a xlink:title=" ">
<path fill="none" stroke="#63b8ff" d="M89.12,-167.55C89.12,-160.34 89.12,-151.66 89.12,-143.88"/>
<polygon fill="#63b8ff" stroke="#63b8ff" points="92.63,-143.92 89.13,-133.92 85.63,-143.92 92.63,-143.92"/>
</a>
</g>
</g>
<!-- Node3 -->
<g id="Node000003" class="node">
<title>Node3</title>
<g id="a_Node000003"><a xlink:href="driver__w25qxx_8h.html" target="_top" xlink:title="driver w25qxx header file">
<polygon fill="white" stroke="#666666" points="132.75,-76 45.5,-76 45.5,-56 132.75,-56 132.75,-76"/>
<text xml:space="preserve" text-anchor="middle" x="89.12" y="-62.5" font-family="Helvetica,sans-Serif" font-size="10.00">driver_w25qxx.h</text>
</a>
</g>
</g>
<!-- Node2&#45;&gt;Node3 -->
<g id="edge2_Node000002_Node000003" class="edge">
<title>Node2&#45;&gt;Node3</title>
<g id="a_edge2_Node000002_Node000003"><a xlink:title=" ">
<path fill="none" stroke="#63b8ff" d="M89.12,-111.59C89.12,-105.01 89.12,-95.96 89.12,-87.73"/>
<polygon fill="#63b8ff" stroke="#63b8ff" points="92.63,-87.81 89.13,-77.81 85.63,-87.81 92.63,-87.81"/>
</a>
</g>
</g>
<!-- Node4 -->
<g id="Node000004" class="node">
<title>Node4</title>
<g id="a_Node000004"><a xlink:title=" ">
<polygon fill="#e0e0e0" stroke="#999999" points="48.25,-20 0,-20 0,0 48.25,0 48.25,-20"/>
<text xml:space="preserve" text-anchor="middle" x="24.12" y="-6.5" font-family="Helvetica,sans-Serif" font-size="10.00">stdint.h</text>
</a>
</g>
</g>
<!-- Node3&#45;&gt;Node4 -->
<g id="edge3_Node000003_Node000004" class="edge">
<title>Node3&#45;&gt;Node4</title>
<g id="a_edge3_Node000003_Node000004"><a xlink:title=" ">
<path fill="none" stroke="#63b8ff" d="M77.8,-55.59C68.48,-47.85 55.05,-36.69 43.95,-27.47"/>
<polygon fill="#63b8ff" stroke="#63b8ff" points="46.41,-24.96 36.48,-21.27 41.94,-30.35 46.41,-24.96"/>
</a>
</g>
</g>
<!-- Node5 -->
<g id="Node000005" class="node">
<title>Node5</title>
<g id="a_Node000005"><a xlink:title=" ">
<polygon fill="#e0e0e0" stroke="#999999" points="111.75,-20 66.5,-20 66.5,0 111.75,0 111.75,-20"/>
<text xml:space="preserve" text-anchor="middle" x="89.12" y="-6.5" font-family="Helvetica,sans-Serif" font-size="10.00">stdio.h</text>
</a>
</g>
</g>
<!-- Node3&#45;&gt;Node5 -->
<g id="edge4_Node000003_Node000005" class="edge">
<title>Node3&#45;&gt;Node5</title>
<g id="a_edge4_Node000003_Node000005"><a xlink:title=" ">
<path fill="none" stroke="#63b8ff" d="M89.12,-55.59C89.12,-49.01 89.12,-39.96 89.12,-31.73"/>
<polygon fill="#63b8ff" stroke="#63b8ff" points="92.63,-31.81 89.13,-21.81 85.63,-31.81 92.63,-31.81"/>
</a>
</g>
</g>
<!-- Node6 -->
<g id="Node000006" class="node">
<title>Node6</title>
<g id="a_Node000006"><a xlink:title=" ">
<polygon fill="#e0e0e0" stroke="#999999" points="178.25,-20 130,-20 130,0 178.25,0 178.25,-20"/>
<text xml:space="preserve" text-anchor="middle" x="154.12" y="-6.5" font-family="Helvetica,sans-Serif" font-size="10.00">string.h</text>
</a>
</g>
</g>
<!-- Node3&#45;&gt;Node6 -->
<g id="edge5_Node000003_Node000006" class="edge">
<title>Node3&#45;&gt;Node6</title>
<g id="a_edge5_Node000003_Node000006"><a xlink:title=" ">
<path fill="none" stroke="#63b8ff" d="M100.45,-55.59C109.77,-47.85 123.2,-36.69 134.3,-27.47"/>
<polygon fill="#63b8ff" stroke="#63b8ff" points="136.31,-30.35 141.77,-21.27 131.84,-24.96 136.31,-30.35"/>
</a>
</g>
</g>
</g>
</svg>
