<?xml version="1.0" encoding="UTF-8" standalone="no"?>
<!DOCTYPE svg PUBLIC "-//W3C//DTD SVG 1.1//EN"
 "http://www.w3.org/Graphics/SVG/1.1/DTD/svg11.dtd">
<!-- Generated by graphviz version 13.1.0 (20250701.0955)
 -->
<!-- Title: w25qxx_advance_reset Pages: 1 -->
<svg width="273pt" height="66pt"
 viewBox="0.00 0.00 273.00 66.00" xmlns="http://www.w3.org/2000/svg" xmlns:xlink="http://www.w3.org/1999/xlink">
<g id="graph0" class="graph" transform="scale(1 1) rotate(0) translate(4 62)">
<title>w25qxx_advance_reset</title>
<!-- Node1 -->
<g id="Node000001" class="node">
<title>Node1</title>
<g id="a_Node000001"><a xlink:title="advance example reset">
<polygon fill="#999999" stroke="#666666" points="118.75,-39 0,-39 0,-19 118.75,-19 118.75,-39"/>
<text xml:space="preserve" text-anchor="middle" x="59.38" y="-25.5" font-family="Helvetica,sans-Serif" font-size="10.00">w25qxx_advance_reset</text>
</a>
</g>
</g>
<!-- Node2 -->
<g id="Node000002" class="node">
<title>Node2</title>
<g id="a_Node000002"><a xlink:href="group__w25qxx__advance__driver.html#gab55b4e071e20feb58584025287949438" target="_top" xlink:title="enable the reset">
<polygon fill="white" stroke="#666666" points="265.25,-58 154.75,-58 154.75,-38 265.25,-38 265.25,-58"/>
<text xml:space="preserve" text-anchor="middle" x="210" y="-44.5" font-family="Helvetica,sans-Serif" font-size="10.00">w25qxx_enable_reset</text>
</a>
</g>
</g>
<!-- Node1&#45;&gt;Node2 -->
<g id="edge1_Node000001_Node000002" class="edge">
<title>Node1&#45;&gt;Node2</title>
<g id="a_edge1_Node000001_Node000002"><a xlink:title=" ">
<path fill="none" stroke="#63b8ff" d="M119.12,-36.51C127.06,-37.52 135.25,-38.57 143.3,-39.6"/>
<polygon fill="#63b8ff" stroke="#63b8ff" points="142.69,-43.05 153.05,-40.85 143.58,-36.11 142.69,-43.05"/>
</a>
</g>
</g>
<!-- Node3 -->
<g id="Node000003" class="node">
<title>Node3</title>
<g id="a_Node000003"><a xlink:href="group__w25qxx__advance__driver.html#ga2abebfe2a8d9377eb88448ffca73f222" target="_top" xlink:title="reset the device">
<polygon fill="white" stroke="#666666" points="265.25,-20 154.75,-20 154.75,0 265.25,0 265.25,-20"/>
<text xml:space="preserve" text-anchor="middle" x="210" y="-6.5" font-family="Helvetica,sans-Serif" font-size="10.00">w25qxx_reset_device</text>
</a>
</g>
</g>
<!-- Node1&#45;&gt;Node3 -->
<g id="edge2_Node000001_Node000003" class="edge">
<title>Node1&#45;&gt;Node3</title>
<g id="a_edge2_Node000001_Node000003"><a xlink:title=" ">
<path fill="none" stroke="#63b8ff" d="M119.12,-21.49C127.06,-20.48 135.25,-19.43 143.3,-18.4"/>
<polygon fill="#63b8ff" stroke="#63b8ff" points="143.58,-21.89 153.05,-17.15 142.69,-14.95 143.58,-21.89"/>
</a>
</g>
</g>
</g>
</svg>
