<?xml version="1.0" encoding="UTF-8" standalone="no"?>
<!DOCTYPE svg PUBLIC "-//W3C//DTD SVG 1.1//EN"
 "http://www.w3.org/Graphics/SVG/1.1/DTD/svg11.dtd">
<!-- Generated by graphviz version 13.1.0 (20250701.0955)
 -->
<!-- Title: w25qxx_basic_init Pages: 1 -->
<svg width="280pt" height="494pt"
 viewBox="0.00 0.00 280.00 494.00" xmlns="http://www.w3.org/2000/svg" xmlns:xlink="http://www.w3.org/1999/xlink">
<g id="graph0" class="graph" transform="scale(1 1) rotate(0) translate(4 490)">
<title>w25qxx_basic_init</title>
<!-- Node1 -->
<g id="Node000001" class="node">
<title>Node1</title>
<g id="a_Node000001"><a xlink:title="basic example init">
<polygon fill="#999999" stroke="#666666" points="96.25,-253 0,-253 0,-233 96.25,-233 96.25,-253"/>
<text xml:space="preserve" text-anchor="middle" x="48.12" y="-239.5" font-family="Helvetica,sans-Serif" font-size="10.00">w25qxx_basic_init</text>
</a>
</g>
</g>
<!-- Node2 -->
<g id="Node000002" class="node">
<title>Node2</title>
<g id="a_Node000002"><a xlink:href="group__w25qxx__basic__driver.html#gaa293c3a46c4010a3af597a83e646de0d" target="_top" xlink:title="close the chip">
<polygon fill="white" stroke="#666666" points="241.25,-486 163,-486 163,-466 241.25,-466 241.25,-486"/>
<text xml:space="preserve" text-anchor="middle" x="202.12" y="-472.5" font-family="Helvetica,sans-Serif" font-size="10.00">w25qxx_deinit</text>
</a>
</g>
</g>
<!-- Node1&#45;&gt;Node2 -->
<g id="edge1_Node000001_Node000002" class="edge">
<title>Node1&#45;&gt;Node2</title>
<g id="a_edge1_Node000001_Node000002"><a xlink:title=" ">
<path fill="none" stroke="#63b8ff" d="M49.95,-253.29C53.25,-287.66 68.67,-399.55 132.25,-457 137.81,-462.03 144.59,-465.74 151.69,-468.47"/>
<polygon fill="#63b8ff" stroke="#63b8ff" points="150.58,-471.79 161.17,-471.47 152.69,-465.12 150.58,-471.79"/>
</a>
</g>
</g>
<!-- Node3 -->
<g id="Node000003" class="node">
<title>Node3</title>
<g id="a_Node000003"><a xlink:href="group__w25qxx__basic__driver.html#ga8e7a163b3d255b8c7fc035d0d60f2491" target="_top" xlink:title="initialize the chip">
<polygon fill="white" stroke="#666666" points="236,-448 168.25,-448 168.25,-428 236,-428 236,-448"/>
<text xml:space="preserve" text-anchor="middle" x="202.12" y="-434.5" font-family="Helvetica,sans-Serif" font-size="10.00">w25qxx_init</text>
</a>
</g>
</g>
<!-- Node1&#45;&gt;Node3 -->
<g id="edge2_Node000001_Node000003" class="edge">
<title>Node1&#45;&gt;Node3</title>
<g id="a_edge2_Node000001_Node000003"><a xlink:title=" ">
<path fill="none" stroke="#63b8ff" d="M50.87,-253.15C56.6,-283.3 77.69,-373.1 132.25,-419 139.26,-424.9 147.95,-428.97 156.78,-431.78"/>
<polygon fill="#63b8ff" stroke="#63b8ff" points="155.88,-435.17 166.44,-434.33 157.67,-428.4 155.88,-435.17"/>
</a>
</g>
</g>
<!-- Node4 -->
<g id="Node000004" class="node">
<title>Node4</title>
<g id="a_Node000004"><a xlink:href="group__w25qxx__interface__driver.html#ga5325474fa17f6833744e631613fd2a0e" target="_top" xlink:title="interface print format data">
<polygon fill="white" stroke="#666666" points="264.12,-410 140.12,-410 140.12,-378 264.12,-378 264.12,-410"/>
<text xml:space="preserve" text-anchor="start" x="148.12" y="-396.5" font-family="Helvetica,sans-Serif" font-size="10.00">w25qxx_interface_debug</text>
<text xml:space="preserve" text-anchor="middle" x="202.12" y="-384.5" font-family="Helvetica,sans-Serif" font-size="10.00">_print</text>
</a>
</g>
</g>
<!-- Node1&#45;&gt;Node4 -->
<g id="edge3_Node000001_Node000004" class="edge">
<title>Node1&#45;&gt;Node4</title>
<g id="a_edge3_Node000001_Node000004"><a xlink:title=" ">
<path fill="none" stroke="#63b8ff" d="M53.26,-253.43C63.24,-277.31 90.89,-336.38 132.25,-369 133.4,-369.91 134.59,-370.79 135.81,-371.63"/>
<polygon fill="#63b8ff" stroke="#63b8ff" points="133.98,-374.62 144.35,-376.77 137.59,-368.62 133.98,-374.62"/>
</a>
</g>
</g>
<!-- Node5 -->
<g id="Node000005" class="node">
<title>Node5</title>
<g id="a_Node000005"><a xlink:href="group__w25qxx__interface__driver.html#ga964fa232abf98737cb98458eebfff82c" target="_top" xlink:title="interface delay ms">
<polygon fill="white" stroke="#666666" points="272,-360 132.25,-360 132.25,-340 272,-340 272,-360"/>
<text xml:space="preserve" text-anchor="middle" x="202.12" y="-346.5" font-family="Helvetica,sans-Serif" font-size="10.00">w25qxx_interface_delay_ms</text>
</a>
</g>
</g>
<!-- Node1&#45;&gt;Node5 -->
<g id="edge4_Node000001_Node000005" class="edge">
<title>Node1&#45;&gt;Node5</title>
<g id="a_edge4_Node000001_Node000005"><a xlink:title=" ">
<path fill="none" stroke="#63b8ff" d="M56.03,-253.43C68.82,-271.91 98.03,-310.42 132.25,-331 134.85,-332.56 137.58,-334 140.4,-335.33"/>
<polygon fill="#63b8ff" stroke="#63b8ff" points="138.89,-338.49 149.47,-339.05 141.55,-332.02 138.89,-338.49"/>
</a>
</g>
</g>
<!-- Node6 -->
<g id="Node000006" class="node">
<title>Node6</title>
<g id="a_Node000006"><a xlink:href="group__w25qxx__interface__driver.html#ga38e79039b913154c9dd1036ff52bb420" target="_top" xlink:title="interface delay us">
<polygon fill="white" stroke="#666666" points="270.5,-322 133.75,-322 133.75,-302 270.5,-302 270.5,-322"/>
<text xml:space="preserve" text-anchor="middle" x="202.12" y="-308.5" font-family="Helvetica,sans-Serif" font-size="10.00">w25qxx_interface_delay_us</text>
</a>
</g>
</g>
<!-- Node1&#45;&gt;Node6 -->
<g id="edge5_Node000001_Node000006" class="edge">
<title>Node1&#45;&gt;Node6</title>
<g id="a_edge5_Node000001_Node000006"><a xlink:title=" ">
<path fill="none" stroke="#63b8ff" d="M63.49,-253.31C79.56,-264.44 106.71,-282.04 132.25,-293 136.55,-294.84 141.07,-296.56 145.66,-298.14"/>
<polygon fill="#63b8ff" stroke="#63b8ff" points="144.39,-301.4 154.98,-301.12 146.52,-294.74 144.39,-301.4"/>
</a>
</g>
</g>
<!-- Node7 -->
<g id="Node000007" class="node">
<title>Node7</title>
<g id="a_Node000007"><a xlink:href="group__w25qxx__interface__driver.html#ga091f3607fcdd47f9e5f94cf1397bd46a" target="_top" xlink:title="interface spi qspi bus deinit">
<polygon fill="white" stroke="#666666" points="257.38,-284 146.88,-284 146.88,-252 257.38,-252 257.38,-284"/>
<text xml:space="preserve" text-anchor="start" x="154.88" y="-270.5" font-family="Helvetica,sans-Serif" font-size="10.00">w25qxx_interface_spi</text>
<text xml:space="preserve" text-anchor="middle" x="202.12" y="-258.5" font-family="Helvetica,sans-Serif" font-size="10.00">_qspi_deinit</text>
</a>
</g>
</g>
<!-- Node1&#45;&gt;Node7 -->
<g id="edge6_Node000001_Node000007" class="edge">
<title>Node1&#45;&gt;Node7</title>
<g id="a_edge6_Node000001_Node000007"><a xlink:title=" ">
<path fill="none" stroke="#63b8ff" d="M96.39,-250.77C108.65,-252.79 122.09,-255 135.13,-257.15"/>
<polygon fill="#63b8ff" stroke="#63b8ff" points="134.52,-260.59 144.95,-258.76 135.65,-253.68 134.52,-260.59"/>
</a>
</g>
</g>
<!-- Node8 -->
<g id="Node000008" class="node">
<title>Node8</title>
<g id="a_Node000008"><a xlink:href="group__w25qxx__interface__driver.html#ga2bdc17a556f1c801a38656331f3bb7b6" target="_top" xlink:title="interface spi qspi bus init">
<polygon fill="white" stroke="#666666" points="257.38,-234 146.88,-234 146.88,-202 257.38,-202 257.38,-234"/>
<text xml:space="preserve" text-anchor="start" x="154.88" y="-220.5" font-family="Helvetica,sans-Serif" font-size="10.00">w25qxx_interface_spi</text>
<text xml:space="preserve" text-anchor="middle" x="202.12" y="-208.5" font-family="Helvetica,sans-Serif" font-size="10.00">_qspi_init</text>
</a>
</g>
</g>
<!-- Node1&#45;&gt;Node8 -->
<g id="edge7_Node000001_Node000008" class="edge">
<title>Node1&#45;&gt;Node8</title>
<g id="a_edge7_Node000001_Node000008"><a xlink:title=" ">
<path fill="none" stroke="#63b8ff" d="M96.39,-235.23C108.65,-233.21 122.09,-231 135.13,-228.85"/>
<polygon fill="#63b8ff" stroke="#63b8ff" points="135.65,-232.32 144.95,-227.24 134.52,-225.41 135.65,-232.32"/>
</a>
</g>
</g>
<!-- Node9 -->
<g id="Node000009" class="node">
<title>Node9</title>
<g id="a_Node000009"><a xlink:href="group__w25qxx__interface__driver.html#ga3d76ea1f431978f6b55edfd0628c94cd" target="_top" xlink:title="interface spi qspi bus write read">
<polygon fill="white" stroke="#666666" points="257.38,-184 146.88,-184 146.88,-152 257.38,-152 257.38,-184"/>
<text xml:space="preserve" text-anchor="start" x="154.88" y="-170.5" font-family="Helvetica,sans-Serif" font-size="10.00">w25qxx_interface_spi</text>
<text xml:space="preserve" text-anchor="middle" x="202.12" y="-158.5" font-family="Helvetica,sans-Serif" font-size="10.00">_qspi_write_read</text>
</a>
</g>
</g>
<!-- Node1&#45;&gt;Node9 -->
<g id="edge8_Node000001_Node000009" class="edge">
<title>Node1&#45;&gt;Node9</title>
<g id="a_edge8_Node000001_Node000009"><a xlink:title=" ">
<path fill="none" stroke="#63b8ff" d="M64.25,-232.68C80.55,-221.85 107.47,-204.81 132.25,-193 135.31,-191.54 138.48,-190.12 141.7,-188.73"/>
<polygon fill="#63b8ff" stroke="#63b8ff" points="142.78,-192.07 150.7,-185.04 140.12,-185.6 142.78,-192.07"/>
</a>
</g>
</g>
<!-- Node10 -->
<g id="Node000010" class="node">
<title>Node10</title>
<g id="a_Node000010"><a xlink:href="group__w25qxx__basic__driver.html#gad0e125eff304ce66fb3956d2c8c80656" target="_top" xlink:title="set the chip address mode">
<polygon fill="white" stroke="#666666" points="270.88,-134 133.38,-134 133.38,-114 270.88,-114 270.88,-134"/>
<text xml:space="preserve" text-anchor="middle" x="202.12" y="-120.5" font-family="Helvetica,sans-Serif" font-size="10.00">w25qxx_set_address_mode</text>
</a>
</g>
</g>
<!-- Node1&#45;&gt;Node10 -->
<g id="edge9_Node000001_Node000010" class="edge">
<title>Node1&#45;&gt;Node10</title>
<g id="a_edge9_Node000001_Node000010"><a xlink:title=" ">
<path fill="none" stroke="#63b8ff" d="M54.73,-232.74C66.39,-212.4 95.26,-166.88 132.25,-143 134.49,-141.55 136.84,-140.21 139.27,-138.98"/>
<polygon fill="#63b8ff" stroke="#63b8ff" points="140.46,-142.28 148.2,-135.05 137.64,-135.87 140.46,-142.28"/>
</a>
</g>
</g>
<!-- Node11 -->
<g id="Node000011" class="node">
<title>Node11</title>
<g id="a_Node000011"><a xlink:href="group__w25qxx__basic__driver.html#ga665139209b0abc386474a78d89cce6f2" target="_top" xlink:title="enable or disable the dual quad spi">
<polygon fill="white" stroke="#666666" points="270.12,-96 134.12,-96 134.12,-76 270.12,-76 270.12,-96"/>
<text xml:space="preserve" text-anchor="middle" x="202.12" y="-82.5" font-family="Helvetica,sans-Serif" font-size="10.00">w25qxx_set_dual_quad_spi</text>
</a>
</g>
</g>
<!-- Node1&#45;&gt;Node11 -->
<g id="edge10_Node000001_Node000011" class="edge">
<title>Node1&#45;&gt;Node11</title>
<g id="a_edge10_Node000001_Node000011"><a xlink:title=" ">
<path fill="none" stroke="#63b8ff" d="M52.27,-232.88C60.74,-207.3 86.57,-139.65 132.25,-105 133.81,-103.81 135.45,-102.7 137.13,-101.66"/>
<polygon fill="#63b8ff" stroke="#63b8ff" points="138.67,-104.81 145.95,-97.11 135.46,-98.58 138.67,-104.81"/>
</a>
</g>
</g>
<!-- Node12 -->
<g id="Node000012" class="node">
<title>Node12</title>
<g id="a_Node000012"><a xlink:href="group__w25qxx__basic__driver.html#ga50a62003d566402d46ada2f272c41eb5" target="_top" xlink:title="set the chip interface">
<polygon fill="white" stroke="#666666" points="257.75,-58 146.5,-58 146.5,-38 257.75,-38 257.75,-58"/>
<text xml:space="preserve" text-anchor="middle" x="202.12" y="-44.5" font-family="Helvetica,sans-Serif" font-size="10.00">w25qxx_set_interface</text>
</a>
</g>
</g>
<!-- Node1&#45;&gt;Node12 -->
<g id="edge11_Node000001_Node000012" class="edge">
<title>Node1&#45;&gt;Node12</title>
<g id="a_edge11_Node000001_Node000012"><a xlink:title=" ">
<path fill="none" stroke="#63b8ff" d="M50.87,-232.85C56.6,-202.7 77.69,-112.9 132.25,-67 133.56,-65.9 134.92,-64.87 136.33,-63.89"/>
<polygon fill="#63b8ff" stroke="#63b8ff" points="137.95,-67 144.93,-59.03 134.5,-60.9 137.95,-67"/>
</a>
</g>
</g>
<!-- Node13 -->
<g id="Node000013" class="node">
<title>Node13</title>
<g id="a_Node000013"><a xlink:href="group__w25qxx__basic__driver.html#gaa57189cd4170b73f8b1300ca15e27de6" target="_top" xlink:title="set the chip type">
<polygon fill="white" stroke="#666666" points="248.38,-20 155.88,-20 155.88,0 248.38,0 248.38,-20"/>
<text xml:space="preserve" text-anchor="middle" x="202.12" y="-6.5" font-family="Helvetica,sans-Serif" font-size="10.00">w25qxx_set_type</text>
</a>
</g>
</g>
<!-- Node1&#45;&gt;Node13 -->
<g id="edge12_Node000001_Node000013" class="edge">
<title>Node1&#45;&gt;Node13</title>
<g id="a_edge12_Node000001_Node000013"><a xlink:title=" ">
<path fill="none" stroke="#63b8ff" d="M49.95,-232.71C53.25,-198.34 68.67,-86.45 132.25,-29 136.03,-25.59 140.37,-22.78 144.98,-20.47"/>
<polygon fill="#63b8ff" stroke="#63b8ff" points="146.12,-23.79 154.04,-16.75 143.46,-17.31 146.12,-23.79"/>
</a>
</g>
</g>
</g>
</svg>
