<?xml version="1.0" encoding="UTF-8" standalone="no"?>
<!DOCTYPE svg PUBLIC "-//W3C//DTD SVG 1.1//EN"
 "http://www.w3.org/Graphics/SVG/1.1/DTD/svg11.dtd">
<!-- Generated by graphviz version 13.1.0 (20250701.0955)
 -->
<!-- Title: w25qxx driver function Pages: 1 -->
<svg width="276pt" height="340pt"
 viewBox="0.00 0.00 276.00 340.00" xmlns="http://www.w3.org/2000/svg" xmlns:xlink="http://www.w3.org/1999/xlink">
<g id="graph0" class="graph" transform="scale(1 1) rotate(0) translate(4 336)">
<title>w25qxx driver function</title>
<!-- Node4 -->
<g id="Node000004" class="node">
<title>Node4</title>
<g id="a_Node000004"><a xlink:href="group__w25qxx__advance__driver.html" target="_top" xlink:title="w25qxx advance driver modules">
<polygon fill="white" stroke="#666666" points="267.12,-332 150.62,-332 150.62,-300 267.12,-300 267.12,-332"/>
<text xml:space="preserve" text-anchor="start" x="158.62" y="-318.5" font-family="Helvetica,sans-Serif" font-size="10.00">w25qxx advance driver</text>
<text xml:space="preserve" text-anchor="middle" x="208.88" y="-306.5" font-family="Helvetica,sans-Serif" font-size="10.00"> function</text>
</a>
</g>
</g>
<!-- Node3 -->
<g id="Node000003" class="node">
<title>Node3</title>
<g id="a_Node000003"><a xlink:href="group__w25qxx__basic__driver.html" target="_top" xlink:title="w25qxx basic driver modules">
<polygon fill="white" stroke="#666666" points="260.38,-282 157.38,-282 157.38,-250 260.38,-250 260.38,-282"/>
<text xml:space="preserve" text-anchor="start" x="165.38" y="-268.5" font-family="Helvetica,sans-Serif" font-size="10.00">w25qxx basic driver</text>
<text xml:space="preserve" text-anchor="middle" x="208.88" y="-256.5" font-family="Helvetica,sans-Serif" font-size="10.00"> function</text>
</a>
</g>
</g>
<!-- Node1 -->
<g id="Node000001" class="node">
<title>Node1</title>
<g id="a_Node000001"><a xlink:title="w25qxx driver modules">
<polygon fill="#999999" stroke="#666666" points="114.25,-176 0,-176 0,-156 114.25,-156 114.25,-176"/>
<text xml:space="preserve" text-anchor="middle" x="57.12" y="-162.5" font-family="Helvetica,sans-Serif" font-size="10.00">w25qxx driver function</text>
</a>
</g>
</g>
<!-- Node1&#45;&gt;Node4 -->
<g id="edge3" class="edge">
<title>Node1&#45;&gt;Node4</title>
<path fill="none" stroke="black" d="M68.45,-186.03C83.29,-213.08 112.99,-261.33 150.25,-291 154.26,-294.19 158.74,-297.06 163.38,-299.6"/>
<polygon fill="black" stroke="black" points="71.69,-184.67 63.9,-177.49 65.52,-187.96 71.69,-184.67"/>
</g>
<!-- Node1&#45;&gt;Node3 -->
<g id="edge2" class="edge">
<title>Node1&#45;&gt;Node3</title>
<path fill="none" stroke="black" d="M77.08,-184.06C94.93,-200.41 122.94,-224.39 150.25,-241 155.28,-244.06 160.75,-246.94 166.26,-249.58"/>
<polygon fill="black" stroke="black" points="79.54,-181.57 69.84,-177.32 74.77,-186.69 79.54,-181.57"/>
</g>
<!-- Node7 -->
<g id="Node000007" class="node">
<title>Node7</title>
<g id="a_Node000007"><a xlink:href="group__w25qxx__example__driver.html" target="_top" xlink:title="w25qxx example driver modules">
<polygon fill="white" stroke="#666666" points="267.12,-232 150.62,-232 150.62,-200 267.12,-200 267.12,-232"/>
<text xml:space="preserve" text-anchor="start" x="158.62" y="-218.5" font-family="Helvetica,sans-Serif" font-size="10.00">w25qxx example driver</text>
<text xml:space="preserve" text-anchor="middle" x="208.88" y="-206.5" font-family="Helvetica,sans-Serif" font-size="10.00"> function</text>
</a>
</g>
</g>
<!-- Node1&#45;&gt;Node7 -->
<g id="edge6" class="edge">
<title>Node1&#45;&gt;Node7</title>
<path fill="none" stroke="black" d="M100.33,-180.09C118.44,-186.14 139.72,-193.24 158.54,-199.53"/>
<polygon fill="black" stroke="black" points="101.55,-176.81 90.95,-176.96 99.33,-183.45 101.55,-176.81"/>
</g>
<!-- Node5 -->
<g id="Node000005" class="node">
<title>Node5</title>
<g id="a_Node000005"><a xlink:href="group__w25qxx__extern__driver.html" target="_top" xlink:title="w25qxx extern driver modules">
<polygon fill="white" stroke="#666666" points="262.25,-182 155.5,-182 155.5,-150 262.25,-150 262.25,-182"/>
<text xml:space="preserve" text-anchor="start" x="163.5" y="-168.5" font-family="Helvetica,sans-Serif" font-size="10.00">w25qxx extern driver</text>
<text xml:space="preserve" text-anchor="middle" x="208.88" y="-156.5" font-family="Helvetica,sans-Serif" font-size="10.00"> function</text>
</a>
</g>
</g>
<!-- Node1&#45;&gt;Node5 -->
<g id="edge4" class="edge">
<title>Node1&#45;&gt;Node5</title>
<path fill="none" stroke="black" d="M126.07,-166C135.82,-166 145.73,-166 155.13,-166"/>
<polygon fill="black" stroke="black" points="126.25,-162.5 116.25,-166 126.25,-169.5 126.25,-162.5"/>
</g>
<!-- Node6 -->
<g id="Node000006" class="node">
<title>Node6</title>
<g id="a_Node000006"><a xlink:href="group__w25qxx__interface__driver.html" target="_top" xlink:title="w25qxx interface driver modules">
<polygon fill="white" stroke="#666666" points="267.5,-132 150.25,-132 150.25,-100 267.5,-100 267.5,-132"/>
<text xml:space="preserve" text-anchor="start" x="158.25" y="-118.5" font-family="Helvetica,sans-Serif" font-size="10.00">w25qxx interface driver</text>
<text xml:space="preserve" text-anchor="middle" x="208.88" y="-106.5" font-family="Helvetica,sans-Serif" font-size="10.00"> function</text>
</a>
</g>
</g>
<!-- Node1&#45;&gt;Node6 -->
<g id="edge5" class="edge">
<title>Node1&#45;&gt;Node6</title>
<path fill="none" stroke="black" d="M100.33,-151.91C118.44,-145.86 139.72,-138.76 158.54,-132.47"/>
<polygon fill="black" stroke="black" points="99.33,-148.55 90.95,-155.04 101.55,-155.19 99.33,-148.55"/>
</g>
<!-- Node2 -->
<g id="Node000002" class="node">
<title>Node2</title>
<g id="a_Node000002"><a xlink:href="group__w25qxx__link__driver.html" target="_top" xlink:title="w25qxx link driver modules">
<polygon fill="white" stroke="#666666" points="256.25,-82 161.5,-82 161.5,-50 256.25,-50 256.25,-82"/>
<text xml:space="preserve" text-anchor="start" x="169.5" y="-68.5" font-family="Helvetica,sans-Serif" font-size="10.00">w25qxx link driver</text>
<text xml:space="preserve" text-anchor="middle" x="208.88" y="-56.5" font-family="Helvetica,sans-Serif" font-size="10.00"> function</text>
</a>
</g>
</g>
<!-- Node1&#45;&gt;Node2 -->
<g id="edge1" class="edge">
<title>Node1&#45;&gt;Node2</title>
<path fill="none" stroke="black" d="M77.08,-147.94C94.93,-131.59 122.94,-107.61 150.25,-91 155.28,-87.94 160.75,-85.06 166.26,-82.42"/>
<polygon fill="black" stroke="black" points="74.77,-145.31 69.84,-154.68 79.54,-150.43 74.77,-145.31"/>
</g>
<!-- Node8 -->
<g id="Node000008" class="node">
<title>Node8</title>
<g id="a_Node000008"><a xlink:href="group__w25qxx__test__driver.html" target="_top" xlink:title="w25qxx test driver modules">
<polygon fill="white" stroke="#666666" points="257,-32 160.75,-32 160.75,0 257,0 257,-32"/>
<text xml:space="preserve" text-anchor="start" x="168.75" y="-18.5" font-family="Helvetica,sans-Serif" font-size="10.00">w25qxx test driver</text>
<text xml:space="preserve" text-anchor="middle" x="208.88" y="-6.5" font-family="Helvetica,sans-Serif" font-size="10.00"> function</text>
</a>
</g>
</g>
<!-- Node1&#45;&gt;Node8 -->
<g id="edge7" class="edge">
<title>Node1&#45;&gt;Node8</title>
<path fill="none" stroke="black" d="M68.45,-145.97C83.29,-118.92 112.99,-70.67 150.25,-41 154.26,-37.81 158.74,-34.94 163.38,-32.4"/>
<polygon fill="black" stroke="black" points="65.52,-144.04 63.9,-154.51 71.69,-147.33 65.52,-144.04"/>
</g>
</g>
</svg>
