<?xml version="1.0" encoding="UTF-8" standalone="no"?>
<!DOCTYPE svg PUBLIC "-//W3C//DTD SVG 1.1//EN"
 "http://www.w3.org/Graphics/SVG/1.1/DTD/svg11.dtd">
<!-- Generated by graphviz version 13.1.0 (20250701.0955)
 -->
<!-- Title: w25qxx_advance_init Pages: 1 -->
<svg width="294pt" height="494pt"
 viewBox="0.00 0.00 294.00 494.00" xmlns="http://www.w3.org/2000/svg" xmlns:xlink="http://www.w3.org/1999/xlink">
<g id="graph0" class="graph" transform="scale(1 1) rotate(0) translate(4 490)">
<title>w25qxx_advance_init</title>
<!-- Node1 -->
<g id="Node000001" class="node">
<title>Node1</title>
<g id="a_Node000001"><a xlink:title="advance example init">
<polygon fill="#999999" stroke="#666666" points="109.75,-253 0,-253 0,-233 109.75,-233 109.75,-253"/>
<text xml:space="preserve" text-anchor="middle" x="54.88" y="-239.5" font-family="Helvetica,sans-Serif" font-size="10.00">w25qxx_advance_init</text>
</a>
</g>
</g>
<!-- Node2 -->
<g id="Node000002" class="node">
<title>Node2</title>
<g id="a_Node000002"><a xlink:href="group__w25qxx__basic__driver.html#gaa293c3a46c4010a3af597a83e646de0d" target="_top" xlink:title="close the chip">
<polygon fill="white" stroke="#666666" points="254.75,-486 176.5,-486 176.5,-466 254.75,-466 254.75,-486"/>
<text xml:space="preserve" text-anchor="middle" x="215.62" y="-472.5" font-family="Helvetica,sans-Serif" font-size="10.00">w25qxx_deinit</text>
</a>
</g>
</g>
<!-- Node1&#45;&gt;Node2 -->
<g id="edge1_Node000001_Node000002" class="edge">
<title>Node1&#45;&gt;Node2</title>
<g id="a_edge1_Node000001_Node000002"><a xlink:title=" ">
<path fill="none" stroke="#63b8ff" d="M57.05,-253.31C61.52,-287.73 80.68,-399.8 145.75,-457 151.38,-461.95 158.19,-465.62 165.31,-468.34"/>
<polygon fill="#63b8ff" stroke="#63b8ff" points="164.2,-471.66 174.79,-471.33 166.31,-464.99 164.2,-471.66"/>
</a>
</g>
</g>
<!-- Node3 -->
<g id="Node000003" class="node">
<title>Node3</title>
<g id="a_Node000003"><a xlink:href="group__w25qxx__basic__driver.html#ga8e7a163b3d255b8c7fc035d0d60f2491" target="_top" xlink:title="initialize the chip">
<polygon fill="white" stroke="#666666" points="249.5,-448 181.75,-448 181.75,-428 249.5,-428 249.5,-448"/>
<text xml:space="preserve" text-anchor="middle" x="215.62" y="-434.5" font-family="Helvetica,sans-Serif" font-size="10.00">w25qxx_init</text>
</a>
</g>
</g>
<!-- Node1&#45;&gt;Node3 -->
<g id="edge2_Node000001_Node000003" class="edge">
<title>Node1&#45;&gt;Node3</title>
<g id="a_edge2_Node000001_Node000003"><a xlink:title=" ">
<path fill="none" stroke="#63b8ff" d="M58.03,-253.16C64.97,-283.36 89.64,-373.26 145.75,-419 152.85,-424.79 161.58,-428.82 170.41,-431.62"/>
<polygon fill="#63b8ff" stroke="#63b8ff" points="169.52,-435 180.08,-434.17 171.3,-428.23 169.52,-435"/>
</a>
</g>
</g>
<!-- Node4 -->
<g id="Node000004" class="node">
<title>Node4</title>
<g id="a_Node000004"><a xlink:href="group__w25qxx__interface__driver.html#ga5325474fa17f6833744e631613fd2a0e" target="_top" xlink:title="interface print format data">
<polygon fill="white" stroke="#666666" points="277.62,-410 153.62,-410 153.62,-378 277.62,-378 277.62,-410"/>
<text xml:space="preserve" text-anchor="start" x="161.62" y="-396.5" font-family="Helvetica,sans-Serif" font-size="10.00">w25qxx_interface_debug</text>
<text xml:space="preserve" text-anchor="middle" x="215.62" y="-384.5" font-family="Helvetica,sans-Serif" font-size="10.00">_print</text>
</a>
</g>
</g>
<!-- Node1&#45;&gt;Node4 -->
<g id="edge3_Node000001_Node000004" class="edge">
<title>Node1&#45;&gt;Node4</title>
<g id="a_edge3_Node000001_Node000004"><a xlink:title=" ">
<path fill="none" stroke="#63b8ff" d="M60.58,-253.42C71.87,-277.29 102.75,-336.33 145.75,-369 147.08,-370.01 148.45,-370.98 149.86,-371.92"/>
<polygon fill="#63b8ff" stroke="#63b8ff" points="147.91,-374.83 158.31,-376.81 151.42,-368.77 147.91,-374.83"/>
</a>
</g>
</g>
<!-- Node5 -->
<g id="Node000005" class="node">
<title>Node5</title>
<g id="a_Node000005"><a xlink:href="group__w25qxx__interface__driver.html#ga964fa232abf98737cb98458eebfff82c" target="_top" xlink:title="interface delay ms">
<polygon fill="white" stroke="#666666" points="285.5,-360 145.75,-360 145.75,-340 285.5,-340 285.5,-360"/>
<text xml:space="preserve" text-anchor="middle" x="215.62" y="-346.5" font-family="Helvetica,sans-Serif" font-size="10.00">w25qxx_interface_delay_ms</text>
</a>
</g>
</g>
<!-- Node1&#45;&gt;Node5 -->
<g id="edge4_Node000001_Node000005" class="edge">
<title>Node1&#45;&gt;Node5</title>
<g id="a_edge4_Node000001_Node000005"><a xlink:title=" ">
<path fill="none" stroke="#63b8ff" d="M63.54,-253.41C77.7,-271.86 109.78,-310.31 145.75,-331 148.52,-332.59 151.43,-334.06 154.43,-335.41"/>
<polygon fill="#63b8ff" stroke="#63b8ff" points="152.87,-338.55 163.45,-338.99 155.45,-332.05 152.87,-338.55"/>
</a>
</g>
</g>
<!-- Node6 -->
<g id="Node000006" class="node">
<title>Node6</title>
<g id="a_Node000006"><a xlink:href="group__w25qxx__interface__driver.html#ga38e79039b913154c9dd1036ff52bb420" target="_top" xlink:title="interface delay us">
<polygon fill="white" stroke="#666666" points="284,-322 147.25,-322 147.25,-302 284,-302 284,-322"/>
<text xml:space="preserve" text-anchor="middle" x="215.62" y="-308.5" font-family="Helvetica,sans-Serif" font-size="10.00">w25qxx_interface_delay_us</text>
</a>
</g>
</g>
<!-- Node1&#45;&gt;Node6 -->
<g id="edge5_Node000001_Node000006" class="edge">
<title>Node1&#45;&gt;Node6</title>
<g id="a_edge5_Node000001_Node000006"><a xlink:title=" ">
<path fill="none" stroke="#63b8ff" d="M71.85,-253.43C89.39,-264.51 118.65,-281.91 145.75,-293 150.33,-294.87 155.15,-296.63 160.04,-298.25"/>
<polygon fill="#63b8ff" stroke="#63b8ff" points="158.71,-301.5 169.3,-301.14 160.79,-294.82 158.71,-301.5"/>
</a>
</g>
</g>
<!-- Node7 -->
<g id="Node000007" class="node">
<title>Node7</title>
<g id="a_Node000007"><a xlink:href="group__w25qxx__interface__driver.html#ga091f3607fcdd47f9e5f94cf1397bd46a" target="_top" xlink:title="interface spi qspi bus deinit">
<polygon fill="white" stroke="#666666" points="270.88,-284 160.38,-284 160.38,-252 270.88,-252 270.88,-284"/>
<text xml:space="preserve" text-anchor="start" x="168.38" y="-270.5" font-family="Helvetica,sans-Serif" font-size="10.00">w25qxx_interface_spi</text>
<text xml:space="preserve" text-anchor="middle" x="215.62" y="-258.5" font-family="Helvetica,sans-Serif" font-size="10.00">_qspi_deinit</text>
</a>
</g>
</g>
<!-- Node1&#45;&gt;Node7 -->
<g id="edge6_Node000001_Node000007" class="edge">
<title>Node1&#45;&gt;Node7</title>
<g id="a_edge6_Node000001_Node000007"><a xlink:title=" ">
<path fill="none" stroke="#63b8ff" d="M110.06,-251.53C122.57,-253.5 136,-255.62 148.94,-257.66"/>
<polygon fill="#63b8ff" stroke="#63b8ff" points="148.22,-261.09 158.65,-259.18 149.31,-254.17 148.22,-261.09"/>
</a>
</g>
</g>
<!-- Node8 -->
<g id="Node000008" class="node">
<title>Node8</title>
<g id="a_Node000008"><a xlink:href="group__w25qxx__interface__driver.html#ga2bdc17a556f1c801a38656331f3bb7b6" target="_top" xlink:title="interface spi qspi bus init">
<polygon fill="white" stroke="#666666" points="270.88,-234 160.38,-234 160.38,-202 270.88,-202 270.88,-234"/>
<text xml:space="preserve" text-anchor="start" x="168.38" y="-220.5" font-family="Helvetica,sans-Serif" font-size="10.00">w25qxx_interface_spi</text>
<text xml:space="preserve" text-anchor="middle" x="215.62" y="-208.5" font-family="Helvetica,sans-Serif" font-size="10.00">_qspi_init</text>
</a>
</g>
</g>
<!-- Node1&#45;&gt;Node8 -->
<g id="edge7_Node000001_Node000008" class="edge">
<title>Node1&#45;&gt;Node8</title>
<g id="a_edge7_Node000001_Node000008"><a xlink:title=" ">
<path fill="none" stroke="#63b8ff" d="M110.06,-234.47C122.57,-232.5 136,-230.38 148.94,-228.34"/>
<polygon fill="#63b8ff" stroke="#63b8ff" points="149.31,-231.83 158.65,-226.82 148.22,-224.91 149.31,-231.83"/>
</a>
</g>
</g>
<!-- Node9 -->
<g id="Node000009" class="node">
<title>Node9</title>
<g id="a_Node000009"><a xlink:href="group__w25qxx__interface__driver.html#ga3d76ea1f431978f6b55edfd0628c94cd" target="_top" xlink:title="interface spi qspi bus write read">
<polygon fill="white" stroke="#666666" points="270.88,-184 160.38,-184 160.38,-152 270.88,-152 270.88,-184"/>
<text xml:space="preserve" text-anchor="start" x="168.38" y="-170.5" font-family="Helvetica,sans-Serif" font-size="10.00">w25qxx_interface_spi</text>
<text xml:space="preserve" text-anchor="middle" x="215.62" y="-158.5" font-family="Helvetica,sans-Serif" font-size="10.00">_qspi_write_read</text>
</a>
</g>
</g>
<!-- Node1&#45;&gt;Node9 -->
<g id="edge8_Node000001_Node000009" class="edge">
<title>Node1&#45;&gt;Node9</title>
<g id="a_edge8_Node000001_Node000009"><a xlink:title=" ">
<path fill="none" stroke="#63b8ff" d="M72.68,-232.58C90.43,-221.84 119.43,-205 145.75,-193 149.05,-191.5 152.47,-190.02 155.94,-188.57"/>
<polygon fill="#63b8ff" stroke="#63b8ff" points="157.04,-191.9 165.03,-184.94 154.44,-185.4 157.04,-191.9"/>
</a>
</g>
</g>
<!-- Node10 -->
<g id="Node000010" class="node">
<title>Node10</title>
<g id="a_Node000010"><a xlink:href="group__w25qxx__basic__driver.html#gad0e125eff304ce66fb3956d2c8c80656" target="_top" xlink:title="set the chip address mode">
<polygon fill="white" stroke="#666666" points="284.38,-134 146.88,-134 146.88,-114 284.38,-114 284.38,-134"/>
<text xml:space="preserve" text-anchor="middle" x="215.62" y="-120.5" font-family="Helvetica,sans-Serif" font-size="10.00">w25qxx_set_address_mode</text>
</a>
</g>
</g>
<!-- Node1&#45;&gt;Node10 -->
<g id="edge9_Node000001_Node000010" class="edge">
<title>Node1&#45;&gt;Node10</title>
<g id="a_edge9_Node000001_Node000010"><a xlink:title=" ">
<path fill="none" stroke="#63b8ff" d="M62.16,-232.75C75.15,-212.43 107.04,-166.94 145.75,-143 148.2,-141.49 150.76,-140.09 153.41,-138.81"/>
<polygon fill="#63b8ff" stroke="#63b8ff" points="154.68,-142.07 162.54,-134.96 151.96,-135.62 154.68,-142.07"/>
</a>
</g>
</g>
<!-- Node11 -->
<g id="Node000011" class="node">
<title>Node11</title>
<g id="a_Node000011"><a xlink:href="group__w25qxx__basic__driver.html#ga665139209b0abc386474a78d89cce6f2" target="_top" xlink:title="enable or disable the dual quad spi">
<polygon fill="white" stroke="#666666" points="283.62,-96 147.62,-96 147.62,-76 283.62,-76 283.62,-96"/>
<text xml:space="preserve" text-anchor="middle" x="215.62" y="-82.5" font-family="Helvetica,sans-Serif" font-size="10.00">w25qxx_set_dual_quad_spi</text>
</a>
</g>
</g>
<!-- Node1&#45;&gt;Node11 -->
<g id="edge10_Node000001_Node000011" class="edge">
<title>Node1&#45;&gt;Node11</title>
<g id="a_edge10_Node000001_Node000011"><a xlink:title=" ">
<path fill="none" stroke="#63b8ff" d="M59.52,-232.87C69.27,-207.28 98.44,-139.59 145.75,-105 147.51,-103.71 149.36,-102.51 151.27,-101.39"/>
<polygon fill="#63b8ff" stroke="#63b8ff" points="152.51,-104.68 159.92,-97.11 149.4,-98.41 152.51,-104.68"/>
</a>
</g>
</g>
<!-- Node12 -->
<g id="Node000012" class="node">
<title>Node12</title>
<g id="a_Node000012"><a xlink:href="group__w25qxx__basic__driver.html#ga50a62003d566402d46ada2f272c41eb5" target="_top" xlink:title="set the chip interface">
<polygon fill="white" stroke="#666666" points="271.25,-58 160,-58 160,-38 271.25,-38 271.25,-58"/>
<text xml:space="preserve" text-anchor="middle" x="215.62" y="-44.5" font-family="Helvetica,sans-Serif" font-size="10.00">w25qxx_set_interface</text>
</a>
</g>
</g>
<!-- Node1&#45;&gt;Node12 -->
<g id="edge11_Node000001_Node000012" class="edge">
<title>Node1&#45;&gt;Node12</title>
<g id="a_edge11_Node000001_Node000012"><a xlink:title=" ">
<path fill="none" stroke="#63b8ff" d="M58.03,-232.84C64.97,-202.64 89.64,-112.74 145.75,-67 147.07,-65.92 148.45,-64.91 149.88,-63.95"/>
<polygon fill="#63b8ff" stroke="#63b8ff" points="151.48,-67.06 158.53,-59.15 148.09,-60.93 151.48,-67.06"/>
</a>
</g>
</g>
<!-- Node13 -->
<g id="Node000013" class="node">
<title>Node13</title>
<g id="a_Node000013"><a xlink:href="group__w25qxx__basic__driver.html#gaa57189cd4170b73f8b1300ca15e27de6" target="_top" xlink:title="set the chip type">
<polygon fill="white" stroke="#666666" points="261.88,-20 169.38,-20 169.38,0 261.88,0 261.88,-20"/>
<text xml:space="preserve" text-anchor="middle" x="215.62" y="-6.5" font-family="Helvetica,sans-Serif" font-size="10.00">w25qxx_set_type</text>
</a>
</g>
</g>
<!-- Node1&#45;&gt;Node13 -->
<g id="edge12_Node000001_Node000013" class="edge">
<title>Node1&#45;&gt;Node13</title>
<g id="a_edge12_Node000001_Node000013"><a xlink:title=" ">
<path fill="none" stroke="#63b8ff" d="M57.05,-232.69C61.52,-198.27 80.68,-86.2 145.75,-29 149.57,-25.64 153.94,-22.87 158.58,-20.58"/>
<polygon fill="#63b8ff" stroke="#63b8ff" points="159.72,-23.9 167.67,-16.89 157.08,-17.41 159.72,-23.9"/>
</a>
</g>
</g>
</g>
</svg>
